solid OpenSCAD_Model
  facet normal 0 0 -1
    outer loop
      vertex -2.83684 -7.48013 10
      vertex -1 -2.80017 10
      vertex -1 -7.93287 10
    endloop
  endfacet
  facet normal 0 0 -1
    outer loop
      vertex -4.54452 -6.58387 10
      vertex -1 -2.80017 10
      vertex -2.83684 -7.48013 10
    endloop
  endfacet
  facet normal -0 0 -1
    outer loop
      vertex -1 -2.80017 10
      vertex -4.54452 -6.58387 10
      vertex -2.42705 -1.76336 10
    endloop
  endfacet
  facet normal 0 0 -1
    outer loop
      vertex -5.98809 -5.30498 10
      vertex -2.42705 -1.76336 10
      vertex -4.54452 -6.58387 10
    endloop
  endfacet
  facet normal 0 0 -1
    outer loop
      vertex -7.08365 -3.71778 10
      vertex -2.42705 -1.76336 10
      vertex -5.98809 -5.30498 10
    endloop
  endfacet
  facet normal -0 0 -1
    outer loop
      vertex -2.42705 -1.76336 10
      vertex -7.08365 -3.71778 10
      vertex -2.67508 -1 10
    endloop
  endfacet
  facet normal 0 0 -1
    outer loop
      vertex -7.76753 -1.91453 10
      vertex -2.67508 -1 10
      vertex -7.08365 -3.71778 10
    endloop
  endfacet
  facet normal -0 0 -1
    outer loop
      vertex -2.67508 -1 10
      vertex -7.76753 -1.91453 10
      vertex -7.87858 -1 10
    endloop
  endfacet
  facet normal 0 0 -1
    outer loop
      vertex -4.54452 6.58387 10
      vertex -1 2.80017 10
      vertex -2.42705 1.76336 10
    endloop
  endfacet
  facet normal 0 0 -1
    outer loop
      vertex -7.08365 3.71778 10
      vertex -2.42705 1.76336 10
      vertex -2.67508 1 10
    endloop
  endfacet
  facet normal 0 0 -1
    outer loop
      vertex -1 2.80017 10
      vertex -2.83684 7.48013 10
      vertex -1 7.93287 10
    endloop
  endfacet
  facet normal 0 0 -1
    outer loop
      vertex -1 2.80017 10
      vertex -4.54452 6.58387 10
      vertex -2.83684 7.48013 10
    endloop
  endfacet
  facet normal 0 0 -1
    outer loop
      vertex -2.42705 1.76336 10
      vertex -5.98809 5.30498 10
      vertex -4.54452 6.58387 10
    endloop
  endfacet
  facet normal 0 0 -1
    outer loop
      vertex -2.42705 1.76336 10
      vertex -7.08365 3.71778 10
      vertex -5.98809 5.30498 10
    endloop
  endfacet
  facet normal 0 0 -1
    outer loop
      vertex -2.67508 1 10
      vertex -7.76753 1.91453 10
      vertex -7.08365 3.71778 10
    endloop
  endfacet
  facet normal 0 -0 -1
    outer loop
      vertex -7.76753 1.91453 10
      vertex -2.67508 1 10
      vertex -7.87858 1 10
    endloop
  endfacet
  facet normal 0 0 -1
    outer loop
      vertex 2.67508 -1 10
      vertex 7.76753 -1.91453 10
      vertex 7.08365 -3.71778 10
    endloop
  endfacet
  facet normal 0 0 -1
    outer loop
      vertex 2.42705 -1.76336 10
      vertex 7.08365 -3.71778 10
      vertex 5.98809 -5.30498 10
    endloop
  endfacet
  facet normal 0 0 -1
    outer loop
      vertex 2.42705 -1.76336 10
      vertex 5.98809 -5.30498 10
      vertex 4.54452 -6.58387 10
    endloop
  endfacet
  facet normal 0 0 -1
    outer loop
      vertex 1 -2.80017 10
      vertex 4.54452 -6.58387 10
      vertex 2.83684 -7.48013 10
    endloop
  endfacet
  facet normal 0 -0 -1
    outer loop
      vertex 2.67508 -1 10
      vertex 7.08365 -3.71778 10
      vertex 2.42705 -1.76336 10
    endloop
  endfacet
  facet normal 0 0 -1
    outer loop
      vertex 7.76753 -1.91453 10
      vertex 2.67508 -1 10
      vertex 7.87858 -1 10
    endloop
  endfacet
  facet normal 0 0 -1
    outer loop
      vertex 1 -2.80017 10
      vertex 2.83684 -7.48013 10
      vertex 1 -7.93287 10
    endloop
  endfacet
  facet normal 0 0 -1
    outer loop
      vertex 4.54452 -6.58387 10
      vertex 1 -2.80017 10
      vertex 2.42705 -1.76336 10
    endloop
  endfacet
  facet normal 0 0 -1
    outer loop
      vertex 2.67508 1 10
      vertex 7.76753 1.91453 10
      vertex 7.87858 1 10
    endloop
  endfacet
  facet normal -0 0 -1
    outer loop
      vertex 7.76753 1.91453 10
      vertex 2.67508 1 10
      vertex 7.08365 3.71778 10
    endloop
  endfacet
  facet normal -0 0 -1
    outer loop
      vertex 7.08365 3.71778 10
      vertex 2.42705 1.76336 10
      vertex 5.98809 5.30498 10
    endloop
  endfacet
  facet normal -0 0 -1
    outer loop
      vertex 5.98809 5.30498 10
      vertex 2.42705 1.76336 10
      vertex 4.54452 6.58387 10
    endloop
  endfacet
  facet normal 0 0 -1
    outer loop
      vertex 7.08365 3.71778 10
      vertex 2.67508 1 10
      vertex 2.42705 1.76336 10
    endloop
  endfacet
  facet normal 0 0 -1
    outer loop
      vertex 1 2.80017 10
      vertex 4.54452 6.58387 10
      vertex 2.42705 1.76336 10
    endloop
  endfacet
  facet normal -0 0 -1
    outer loop
      vertex 4.54452 6.58387 10
      vertex 1 2.80017 10
      vertex 2.83684 7.48013 10
    endloop
  endfacet
  facet normal -0 0 -1
    outer loop
      vertex 2.83684 7.48013 10
      vertex 1 2.80017 10
      vertex 1 7.93287 10
    endloop
  endfacet
  facet normal 0 1 -0
    outer loop
      vertex -2.67508 1 3
      vertex -7.87858 1 10
      vertex -2.67508 1 10
    endloop
  endfacet
  facet normal 0 1 0
    outer loop
      vertex -7.87858 1 10
      vertex -2.67508 1 3
      vertex -7.87858 1 3
    endloop
  endfacet
  facet normal 0 1 -0
    outer loop
      vertex 7.87858 1 3
      vertex 2.67508 1 10
      vertex 7.87858 1 10
    endloop
  endfacet
  facet normal 0 1 0
    outer loop
      vertex 2.67508 1 10
      vertex 7.87858 1 3
      vertex 2.67508 1 3
    endloop
  endfacet
  facet normal 0 0 1
    outer loop
      vertex -1 -2.80017 3
      vertex -2.42705 -1.76336 3
      vertex -1 -7.93287 3
    endloop
  endfacet
  facet normal 0 0 1
    outer loop
      vertex 12 10 3
      vertex 8 0 3
      vertex 12 -10 3
    endloop
  endfacet
  facet normal 0 0 1
    outer loop
      vertex 12 10 3
      vertex 7.87858 1 3
      vertex 8 0 3
    endloop
  endfacet
  facet normal -0 0 1
    outer loop
      vertex 1 7.93287 3
      vertex 7.87858 1 3
      vertex 12 10 3
    endloop
  endfacet
  facet normal 0 0 1
    outer loop
      vertex 7.87858 1 3
      vertex 2.42705 1.76336 3
      vertex 2.67508 1 3
    endloop
  endfacet
  facet normal 0 0 1
    outer loop
      vertex 7.87858 1 3
      vertex 1 7.93287 3
      vertex 2.42705 1.76336 3
    endloop
  endfacet
  facet normal 0 0 1
    outer loop
      vertex 12 10 3
      vertex 0.964293 7.94167 3
      vertex 1 7.93287 3
    endloop
  endfacet
  facet normal 0 0 1
    outer loop
      vertex 12 10 3
      vertex -0.964293 7.94167 3
      vertex 0.964293 7.94167 3
    endloop
  endfacet
  facet normal 0 0 1
    outer loop
      vertex -1 7.93287 3
      vertex -2.42705 1.76336 3
      vertex -1 2.80017 3
    endloop
  endfacet
  facet normal 0 0 1
    outer loop
      vertex -7.87858 1 3
      vertex -2.42705 1.76336 3
      vertex -1 7.93287 3
    endloop
  endfacet
  facet normal 0 0 1
    outer loop
      vertex -2.42705 1.76336 3
      vertex -7.87858 1 3
      vertex -2.67508 1 3
    endloop
  endfacet
  facet normal 0 0 1
    outer loop
      vertex -7.87858 1 3
      vertex -12 10 3
      vertex -8 0 3
    endloop
  endfacet
  facet normal 0 0 1
    outer loop
      vertex -1 7.93287 3
      vertex -12 10 3
      vertex -7.87858 1 3
    endloop
  endfacet
  facet normal 0 0 1
    outer loop
      vertex -0.964293 7.94167 3
      vertex -12 10 3
      vertex -1 7.93287 3
    endloop
  endfacet
  facet normal -0 0 1
    outer loop
      vertex -12 10 3
      vertex -0.964293 7.94167 3
      vertex 12 10 3
    endloop
  endfacet
  facet normal -0 0 1
    outer loop
      vertex 7.87858 -1 3
      vertex 12 -10 3
      vertex 8 0 3
    endloop
  endfacet
  facet normal 0 0 1
    outer loop
      vertex 2.42705 -1.76336 3
      vertex 7.87858 -1 3
      vertex 2.67508 -1 3
    endloop
  endfacet
  facet normal 0 0 1
    outer loop
      vertex 1 -7.93287 3
      vertex 7.87858 -1 3
      vertex 2.42705 -1.76336 3
    endloop
  endfacet
  facet normal 0 0 1
    outer loop
      vertex 1 -7.93287 3
      vertex 2.42705 -1.76336 3
      vertex 1 -2.80017 3
    endloop
  endfacet
  facet normal 0 0 1
    outer loop
      vertex 7.87858 -1 3
      vertex 1 -7.93287 3
      vertex 12 -10 3
    endloop
  endfacet
  facet normal -0 0 1
    outer loop
      vertex 0.964293 -7.94167 3
      vertex 12 -10 3
      vertex 1 -7.93287 3
    endloop
  endfacet
  facet normal -0 0 1
    outer loop
      vertex -0.964293 -7.94167 3
      vertex 12 -10 3
      vertex 0.964293 -7.94167 3
    endloop
  endfacet
  facet normal -0 0 1
    outer loop
      vertex -7.87858 -1 3
      vertex -2.42705 -1.76336 3
      vertex -2.67508 -1 3
    endloop
  endfacet
  facet normal 0 0 1
    outer loop
      vertex -2.42705 -1.76336 3
      vertex -7.87858 -1 3
      vertex -1 -7.93287 3
    endloop
  endfacet
  facet normal 0 0 1
    outer loop
      vertex -12 -10 3
      vertex -8 0 3
      vertex -12 10 3
    endloop
  endfacet
  facet normal 0 0 1
    outer loop
      vertex -0.964293 -7.94167 3
      vertex -12 -10 3
      vertex 12 -10 3
    endloop
  endfacet
  facet normal 0 0 1
    outer loop
      vertex -1 -7.93287 3
      vertex -12 -10 3
      vertex -0.964293 -7.94167 3
    endloop
  endfacet
  facet normal 0 0 1
    outer loop
      vertex -7.87858 -1 3
      vertex -12 -10 3
      vertex -1 -7.93287 3
    endloop
  endfacet
  facet normal 0 0 1
    outer loop
      vertex -8 0 3
      vertex -12 -10 3
      vertex -7.87858 -1 3
    endloop
  endfacet
  facet normal 0 0 1
    outer loop
      vertex 2.42705 1.76336 3
      vertex 1 7.93287 3
      vertex 1 2.80017 3
    endloop
  endfacet
  facet normal 0 -1 0
    outer loop
      vertex -7.87858 -1 3
      vertex -2.67508 -1 10
      vertex -7.87858 -1 10
    endloop
  endfacet
  facet normal 0 -1 -0
    outer loop
      vertex -2.67508 -1 10
      vertex -7.87858 -1 3
      vertex -2.67508 -1 3
    endloop
  endfacet
  facet normal 0 -1 0
    outer loop
      vertex 2.67508 -1 3
      vertex 7.87858 -1 10
      vertex 2.67508 -1 10
    endloop
  endfacet
  facet normal 0 -1 -0
    outer loop
      vertex 7.87858 -1 10
      vertex 2.67508 -1 3
      vertex 7.87858 -1 3
    endloop
  endfacet
  facet normal -1 0 0
    outer loop
      vertex -1 2.80017 3
      vertex -1 7.93287 10
      vertex -1 7.93287 3
    endloop
  endfacet
  facet normal -1 -0 0
    outer loop
      vertex -1 7.93287 10
      vertex -1 2.80017 3
      vertex -1 2.80017 10
    endloop
  endfacet
  facet normal -1 0 0
    outer loop
      vertex -1 -7.93287 3
      vertex -1 -2.80017 10
      vertex -1 -2.80017 3
    endloop
  endfacet
  facet normal -1 -0 0
    outer loop
      vertex -1 -2.80017 10
      vertex -1 -7.93287 3
      vertex -1 -7.93287 10
    endloop
  endfacet
  facet normal 1 -0 0
    outer loop
      vertex 1 -7.93287 10
      vertex 1 -2.80017 3
      vertex 1 -2.80017 10
    endloop
  endfacet
  facet normal 1 0 0
    outer loop
      vertex 1 -2.80017 3
      vertex 1 -7.93287 10
      vertex 1 -7.93287 3
    endloop
  endfacet
  facet normal 1 -0 0
    outer loop
      vertex 1 2.80017 10
      vertex 1 7.93287 3
      vertex 1 7.93287 10
    endloop
  endfacet
  facet normal 1 0 0
    outer loop
      vertex 1 7.93287 3
      vertex 1 2.80017 10
      vertex 1 2.80017 3
    endloop
  endfacet
  facet normal -0.992709 0.120537 0
    outer loop
      vertex -7.87858 1 3
      vertex -8 0 3
      vertex -7.87858 1 10
    endloop
  endfacet
  facet normal -0.992709 0.120537 0
    outer loop
      vertex -7.87858 1 10
      vertex -7.76753 1.91453 13
      vertex -7.76753 1.91453 10
    endloop
  endfacet
  facet normal -0.992709 0.120537 -4.68685e-008
    outer loop
      vertex -7.87858 1 10
      vertex -8 0 13
      vertex -7.76753 1.91453 13
    endloop
  endfacet
  facet normal -0.992709 0.120537 0
    outer loop
      vertex -8 0 13
      vertex -7.87858 1 10
      vertex -8 0 3
    endloop
  endfacet
  facet normal -0.992709 -0.120537 -0
    outer loop
      vertex -7.87858 -1 10
      vertex -8 0 3
      vertex -7.87858 -1 3
    endloop
  endfacet
  facet normal -0.992709 -0.120537 0
    outer loop
      vertex -8 0 3
      vertex -7.87858 -1 10
      vertex -8 0 13
    endloop
  endfacet
  facet normal -0.992709 -0.120537 -0
    outer loop
      vertex -7.76753 -1.91453 13
      vertex -7.87858 -1 10
      vertex -7.76753 -1.91453 10
    endloop
  endfacet
  facet normal -0.992709 -0.120537 -4.68685e-008
    outer loop
      vertex -7.87858 -1 10
      vertex -7.76753 -1.91453 13
      vertex -8 0 13
    endloop
  endfacet
  facet normal 0 1 -0
    outer loop
      vertex 0.964293 7.94167 3
      vertex -0.964293 7.94167 13
      vertex 0.964293 7.94167 13
    endloop
  endfacet
  facet normal 0 1 0
    outer loop
      vertex -0.964293 7.94167 13
      vertex 0.964293 7.94167 3
      vertex -0.964293 7.94167 3
    endloop
  endfacet
  facet normal 0.239316 0.970942 0
    outer loop
      vertex 1 7.93287 10
      vertex 2.83684 7.48013 13
      vertex 2.83684 7.48013 10
    endloop
  endfacet
  facet normal 0.239316 0.970942 3.82633e-008
    outer loop
      vertex 2.83684 7.48013 13
      vertex 1 7.93287 10
      vertex 0.964293 7.94167 13
    endloop
  endfacet
  facet normal 0.239313 0.970943 0
    outer loop
      vertex 0.964293 7.94167 3
      vertex 1 7.93287 10
      vertex 1 7.93287 3
    endloop
  endfacet
  facet normal 0.239313 0.970943 0
    outer loop
      vertex 1 7.93287 10
      vertex 0.964293 7.94167 3
      vertex 0.964293 7.94167 13
    endloop
  endfacet
  facet normal 0.992709 -0.120537 0
    outer loop
      vertex 8 0 13
      vertex 7.87858 -1 10
      vertex 8 0 3
    endloop
  endfacet
  facet normal 0.992709 -0.120537 -4.68685e-008
    outer loop
      vertex 7.76753 -1.91453 13
      vertex 7.87858 -1 10
      vertex 8 0 13
    endloop
  endfacet
  facet normal 0.992709 -0.120537 0
    outer loop
      vertex 7.87858 -1 10
      vertex 7.76753 -1.91453 13
      vertex 7.76753 -1.91453 10
    endloop
  endfacet
  facet normal 0.992709 -0.120537 0
    outer loop
      vertex 8 0 3
      vertex 7.87858 -1 10
      vertex 7.87858 -1 3
    endloop
  endfacet
  facet normal 0.239316 -0.970942 3.82633e-008
    outer loop
      vertex 0.964293 -7.94167 13
      vertex 1 -7.93287 10
      vertex 2.83684 -7.48013 13
    endloop
  endfacet
  facet normal 0.239313 -0.970943 0
    outer loop
      vertex 0.964293 -7.94167 3
      vertex 1 -7.93287 10
      vertex 0.964293 -7.94167 13
    endloop
  endfacet
  facet normal 0.239313 -0.970943 0
    outer loop
      vertex 1 -7.93287 10
      vertex 0.964293 -7.94167 3
      vertex 1 -7.93287 3
    endloop
  endfacet
  facet normal 0.239316 -0.970942 0
    outer loop
      vertex 2.83684 -7.48013 13
      vertex 1 -7.93287 10
      vertex 2.83684 -7.48013 10
    endloop
  endfacet
  facet normal -0.239316 0.970942 3.82633e-008
    outer loop
      vertex -0.964293 7.94167 13
      vertex -1 7.93287 10
      vertex -2.83684 7.48013 13
    endloop
  endfacet
  facet normal -0.239313 0.970943 0
    outer loop
      vertex -0.964293 7.94167 3
      vertex -1 7.93287 10
      vertex -0.964293 7.94167 13
    endloop
  endfacet
  facet normal -0.239313 0.970943 0
    outer loop
      vertex -1 7.93287 10
      vertex -0.964293 7.94167 3
      vertex -1 7.93287 3
    endloop
  endfacet
  facet normal -0.239316 0.970942 0
    outer loop
      vertex -2.83684 7.48013 13
      vertex -1 7.93287 10
      vertex -2.83684 7.48013 10
    endloop
  endfacet
  facet normal 0.992709 0.120537 0
    outer loop
      vertex 7.76753 1.91453 13
      vertex 7.87858 1 10
      vertex 7.76753 1.91453 10
    endloop
  endfacet
  facet normal 0.992709 0.120537 -4.68685e-008
    outer loop
      vertex 8 0 13
      vertex 7.87858 1 10
      vertex 7.76753 1.91453 13
    endloop
  endfacet
  facet normal 0.992709 0.120537 -0
    outer loop
      vertex 8 0 3
      vertex 7.87858 1 10
      vertex 8 0 13
    endloop
  endfacet
  facet normal 0.992709 0.120537 0
    outer loop
      vertex 7.87858 1 10
      vertex 8 0 3
      vertex 7.87858 1 3
    endloop
  endfacet
  facet normal 0 -1 0
    outer loop
      vertex -0.964293 -7.94167 3
      vertex 0.964293 -7.94167 13
      vertex -0.964293 -7.94167 13
    endloop
  endfacet
  facet normal 0 -1 -0
    outer loop
      vertex 0.964293 -7.94167 13
      vertex -0.964293 -7.94167 3
      vertex 0.964293 -7.94167 3
    endloop
  endfacet
  facet normal -0.239316 -0.970942 0
    outer loop
      vertex -1 -7.93287 10
      vertex -2.83684 -7.48013 13
      vertex -2.83684 -7.48013 10
    endloop
  endfacet
  facet normal -0.239316 -0.970942 3.82633e-008
    outer loop
      vertex -2.83684 -7.48013 13
      vertex -1 -7.93287 10
      vertex -0.964293 -7.94167 13
    endloop
  endfacet
  facet normal -0.239313 -0.970943 0
    outer loop
      vertex -0.964293 -7.94167 3
      vertex -1 -7.93287 10
      vertex -1 -7.93287 3
    endloop
  endfacet
  facet normal -0.239313 -0.970943 0
    outer loop
      vertex -1 -7.93287 10
      vertex -0.964293 -7.94167 3
      vertex -0.964293 -7.94167 13
    endloop
  endfacet
  facet normal -1 0 0
    outer loop
      vertex -12 2 -3
      vertex -12 -2 -3
      vertex -12 2 0
    endloop
  endfacet
  facet normal -1 0 0
    outer loop
      vertex -12 2 0
      vertex -12 10 3
      vertex -12 10 0
    endloop
  endfacet
  facet normal -1 0 0
    outer loop
      vertex -12 -2 0
      vertex -12 2 0
      vertex -12 -2 -3
    endloop
  endfacet
  facet normal -1 0 0
    outer loop
      vertex -12 -2 0
      vertex -12 10 3
      vertex -12 2 0
    endloop
  endfacet
  facet normal -1 0 0
    outer loop
      vertex -12 -10 3
      vertex -12 -2 0
      vertex -12 -10 0
    endloop
  endfacet
  facet normal -1 0 0
    outer loop
      vertex -12 -2 0
      vertex -12 -10 3
      vertex -12 10 3
    endloop
  endfacet
  facet normal 1 0 0
    outer loop
      vertex 12 10 3
      vertex 12 2 0
      vertex 12 10 0
    endloop
  endfacet
  facet normal 1 0 0
    outer loop
      vertex 12 2 0
      vertex 12 -2 0
      vertex 12 2 -3
    endloop
  endfacet
  facet normal 1 0 0
    outer loop
      vertex 12 10 3
      vertex 12 -2 0
      vertex 12 2 0
    endloop
  endfacet
  facet normal 1 -0 0
    outer loop
      vertex 12 -10 3
      vertex 12 -2 0
      vertex 12 10 3
    endloop
  endfacet
  facet normal 1 0 0
    outer loop
      vertex 12 -2 0
      vertex 12 -10 3
      vertex 12 -10 0
    endloop
  endfacet
  facet normal 1 0 0
    outer loop
      vertex 12 2 -3
      vertex 12 -2 0
      vertex 12 -2 -3
    endloop
  endfacet
  facet normal 0 1 -0
    outer loop
      vertex 12 10 0
      vertex -12 10 3
      vertex 12 10 3
    endloop
  endfacet
  facet normal 0 1 0
    outer loop
      vertex -12 10 3
      vertex 12 10 0
      vertex -12 10 0
    endloop
  endfacet
  facet normal 0 0 -1
    outer loop
      vertex 12 -10 0
      vertex 8 -2 0
      vertex 12 -2 0
    endloop
  endfacet
  facet normal 0 0 -1
    outer loop
      vertex 8 -2 0
      vertex 3 0 0
      vertex 8 2 0
    endloop
  endfacet
  facet normal 0 0 -1
    outer loop
      vertex 0.927051 -2.85317 0
      vertex 8 -2 0
      vertex 12 -10 0
    endloop
  endfacet
  facet normal 0 0 -1
    outer loop
      vertex 8 -2 0
      vertex 2.42705 -1.76336 0
      vertex 3 0 0
    endloop
  endfacet
  facet normal -0 0 -1
    outer loop
      vertex 8 -2 0
      vertex 0.927051 -2.85317 0
      vertex 2.42705 -1.76336 0
    endloop
  endfacet
  facet normal 0 0 -1
    outer loop
      vertex 12 -10 0
      vertex -0.927051 -2.85317 0
      vertex 0.927051 -2.85317 0
    endloop
  endfacet
  facet normal -0 0 -1
    outer loop
      vertex -2.42705 -1.76336 0
      vertex -8 -2 0
      vertex -3 0 0
    endloop
  endfacet
  facet normal 0 0 -1
    outer loop
      vertex -0.927051 -2.85317 0
      vertex -8 -2 0
      vertex -2.42705 -1.76336 0
    endloop
  endfacet
  facet normal 0 0 -1
    outer loop
      vertex -12 -10 0
      vertex -0.927051 -2.85317 0
      vertex 12 -10 0
    endloop
  endfacet
  facet normal -0 0 -1
    outer loop
      vertex -0.927051 -2.85317 0
      vertex -12 -10 0
      vertex -8 -2 0
    endloop
  endfacet
  facet normal -0 0 -1
    outer loop
      vertex -8 -2 0
      vertex -12 -10 0
      vertex -12 -2 0
    endloop
  endfacet
  facet normal 0 0 -1
    outer loop
      vertex 8 2 0
      vertex 12 10 0
      vertex 12 2 0
    endloop
  endfacet
  facet normal 0 0 -1
    outer loop
      vertex 2.42705 1.76336 0
      vertex 8 2 0
      vertex 3 0 0
    endloop
  endfacet
  facet normal 0 0 -1
    outer loop
      vertex 0.927051 2.85317 0
      vertex 8 2 0
      vertex 2.42705 1.76336 0
    endloop
  endfacet
  facet normal 0 0 -1
    outer loop
      vertex 8 2 0
      vertex 0.927051 2.85317 0
      vertex 12 10 0
    endloop
  endfacet
  facet normal 0 0 -1
    outer loop
      vertex -0.927051 2.85317 0
      vertex 12 10 0
      vertex 0.927051 2.85317 0
    endloop
  endfacet
  facet normal 0 0 -1
    outer loop
      vertex -8 2 0
      vertex -3 0 0
      vertex -8 -2 0
    endloop
  endfacet
  facet normal 0 0 -1
    outer loop
      vertex -3 0 0
      vertex -8 2 0
      vertex -2.42705 1.76336 0
    endloop
  endfacet
  facet normal 0 0 -1
    outer loop
      vertex -2.42705 1.76336 0
      vertex -8 2 0
      vertex -0.927051 2.85317 0
    endloop
  endfacet
  facet normal 0 0 -1
    outer loop
      vertex -12 10 0
      vertex -0.927051 2.85317 0
      vertex -8 2 0
    endloop
  endfacet
  facet normal 0 0 -1
    outer loop
      vertex -12 10 0
      vertex -8 2 0
      vertex -12 2 0
    endloop
  endfacet
  facet normal 0 0 -1
    outer loop
      vertex -0.927051 2.85317 0
      vertex -12 10 0
      vertex 12 10 0
    endloop
  endfacet
  facet normal 0 -1 0
    outer loop
      vertex -12 -10 0
      vertex 12 -10 3
      vertex -12 -10 3
    endloop
  endfacet
  facet normal 0 -1 -0
    outer loop
      vertex 12 -10 3
      vertex -12 -10 0
      vertex 12 -10 0
    endloop
  endfacet
  facet normal 1 -0 0
    outer loop
      vertex -8 -2 0
      vertex -8 2 -3
      vertex -8 2 0
    endloop
  endfacet
  facet normal 1 0 0
    outer loop
      vertex -8 2 -3
      vertex -8 -2 0
      vertex -8 -2 -3
    endloop
  endfacet
  facet normal 0 1 -0
    outer loop
      vertex -8 2 -3
      vertex -12 2 0
      vertex -8 2 0
    endloop
  endfacet
  facet normal 0 1 0
    outer loop
      vertex -12 2 0
      vertex -8 2 -3
      vertex -12 2 -3
    endloop
  endfacet
  facet normal 0 0 -1
    outer loop
      vertex -12 -2 -3
      vertex -8 2 -3
      vertex -8 -2 -3
    endloop
  endfacet
  facet normal -0 0 -1
    outer loop
      vertex -8 2 -3
      vertex -12 -2 -3
      vertex -12 2 -3
    endloop
  endfacet
  facet normal 0 -1 0
    outer loop
      vertex -12 -2 -3
      vertex -8 -2 0
      vertex -12 -2 0
    endloop
  endfacet
  facet normal 0 -1 -0
    outer loop
      vertex -8 -2 0
      vertex -12 -2 -3
      vertex -8 -2 -3
    endloop
  endfacet
  facet normal -1 0 0
    outer loop
      vertex 8 -2 -3
      vertex 8 2 0
      vertex 8 2 -3
    endloop
  endfacet
  facet normal -1 -0 0
    outer loop
      vertex 8 2 0
      vertex 8 -2 -3
      vertex 8 -2 0
    endloop
  endfacet
  facet normal 0 1 -0
    outer loop
      vertex 12 2 -3
      vertex 8 2 0
      vertex 12 2 0
    endloop
  endfacet
  facet normal 0 1 0
    outer loop
      vertex 8 2 0
      vertex 12 2 -3
      vertex 8 2 -3
    endloop
  endfacet
  facet normal 0 0 -1
    outer loop
      vertex 8 -2 -3
      vertex 12 2 -3
      vertex 12 -2 -3
    endloop
  endfacet
  facet normal -0 0 -1
    outer loop
      vertex 12 2 -3
      vertex 8 -2 -3
      vertex 8 2 -3
    endloop
  endfacet
  facet normal 0 -1 0
    outer loop
      vertex 8 -2 -3
      vertex 12 -2 0
      vertex 8 -2 0
    endloop
  endfacet
  facet normal 0 -1 -0
    outer loop
      vertex 12 -2 0
      vertex 8 -2 -3
      vertex 12 -2 -3
    endloop
  endfacet
  facet normal 0.663123 0.748511 -0
    outer loop
      vertex 5.98809 5.30498 10
      vertex 4.54452 6.58387 13
      vertex 5.98809 5.30498 13
    endloop
  endfacet
  facet normal 0.663123 0.748511 0
    outer loop
      vertex 4.54452 6.58387 13
      vertex 5.98809 5.30498 10
      vertex 4.54452 6.58387 10
    endloop
  endfacet
  facet normal -0.663123 0.748511 0
    outer loop
      vertex -4.54452 6.58387 10
      vertex -5.98809 5.30498 13
      vertex -4.54452 6.58387 13
    endloop
  endfacet
  facet normal -0.663123 0.748511 0
    outer loop
      vertex -5.98809 5.30498 13
      vertex -4.54452 6.58387 10
      vertex -5.98809 5.30498 10
    endloop
  endfacet
  facet normal 0 0 1
    outer loop
      vertex 3 0 13
      vertex 8 0 13
      vertex 7.76753 1.91453 13
    endloop
  endfacet
  facet normal 0 0 1
    outer loop
      vertex 2.42705 1.76336 13
      vertex 7.76753 1.91453 13
      vertex 7.08365 3.71778 13
    endloop
  endfacet
  facet normal 0 0 1
    outer loop
      vertex 8 0 13
      vertex 3 0 13
      vertex 7.76753 -1.91453 13
    endloop
  endfacet
  facet normal 0 0 1
    outer loop
      vertex 2.42705 1.76336 13
      vertex 7.08365 3.71778 13
      vertex 5.98809 5.30498 13
    endloop
  endfacet
  facet normal -0 0 1
    outer loop
      vertex 2.42705 -1.76336 13
      vertex 7.76753 -1.91453 13
      vertex 3 0 13
    endloop
  endfacet
  facet normal 0 0 1
    outer loop
      vertex 2.42705 1.76336 13
      vertex 5.98809 5.30498 13
      vertex 4.54452 6.58387 13
    endloop
  endfacet
  facet normal 0 0 1
    outer loop
      vertex 7.76753 -1.91453 13
      vertex 2.42705 -1.76336 13
      vertex 7.08365 -3.71778 13
    endloop
  endfacet
  facet normal 0 0 1
    outer loop
      vertex 7.08365 -3.71778 13
      vertex 2.42705 -1.76336 13
      vertex 5.98809 -5.30498 13
    endloop
  endfacet
  facet normal 0 0 1
    outer loop
      vertex 0.927051 2.85317 13
      vertex 4.54452 6.58387 13
      vertex 2.83684 7.48013 13
    endloop
  endfacet
  facet normal 0 0 1
    outer loop
      vertex 7.76753 1.91453 13
      vertex 2.42705 1.76336 13
      vertex 3 0 13
    endloop
  endfacet
  facet normal 0 0 1
    outer loop
      vertex 0.927051 2.85317 13
      vertex 2.83684 7.48013 13
      vertex 0.964293 7.94167 13
    endloop
  endfacet
  facet normal 0 0 1
    outer loop
      vertex 4.54452 6.58387 13
      vertex 0.927051 2.85317 13
      vertex 2.42705 1.76336 13
    endloop
  endfacet
  facet normal 0 0 1
    outer loop
      vertex 0.964293 7.94167 13
      vertex -0.927051 2.85317 13
      vertex 0.927051 2.85317 13
    endloop
  endfacet
  facet normal -0 0 1
    outer loop
      vertex -0.964293 7.94167 13
      vertex -0.927051 2.85317 13
      vertex 0.964293 7.94167 13
    endloop
  endfacet
  facet normal -0 0 1
    outer loop
      vertex -2.83684 7.48013 13
      vertex -0.927051 2.85317 13
      vertex -0.964293 7.94167 13
    endloop
  endfacet
  facet normal -0 0 1
    outer loop
      vertex -4.54452 6.58387 13
      vertex -0.927051 2.85317 13
      vertex -2.83684 7.48013 13
    endloop
  endfacet
  facet normal 0 0 1
    outer loop
      vertex -0.927051 2.85317 13
      vertex -4.54452 6.58387 13
      vertex -2.42705 1.76336 13
    endloop
  endfacet
  facet normal -0 0 1
    outer loop
      vertex -5.98809 5.30498 13
      vertex -2.42705 1.76336 13
      vertex -4.54452 6.58387 13
    endloop
  endfacet
  facet normal 0 0 1
    outer loop
      vertex 5.98809 -5.30498 13
      vertex 2.42705 -1.76336 13
      vertex 4.54452 -6.58387 13
    endloop
  endfacet
  facet normal -0 0 1
    outer loop
      vertex 0.927051 -2.85317 13
      vertex 4.54452 -6.58387 13
      vertex 2.42705 -1.76336 13
    endloop
  endfacet
  facet normal 0 0 1
    outer loop
      vertex 4.54452 -6.58387 13
      vertex 0.927051 -2.85317 13
      vertex 2.83684 -7.48013 13
    endloop
  endfacet
  facet normal 0 0 1
    outer loop
      vertex 2.83684 -7.48013 13
      vertex 0.927051 -2.85317 13
      vertex 0.964293 -7.94167 13
    endloop
  endfacet
  facet normal -0 0 1
    outer loop
      vertex -0.927051 -2.85317 13
      vertex 0.964293 -7.94167 13
      vertex 0.927051 -2.85317 13
    endloop
  endfacet
  facet normal 0 0 1
    outer loop
      vertex -0.927051 -2.85317 13
      vertex -0.964293 -7.94167 13
      vertex 0.964293 -7.94167 13
    endloop
  endfacet
  facet normal 0 0 1
    outer loop
      vertex -4.54452 -6.58387 13
      vertex -0.927051 -2.85317 13
      vertex -2.42705 -1.76336 13
    endloop
  endfacet
  facet normal 0 0 1
    outer loop
      vertex -0.927051 -2.85317 13
      vertex -2.83684 -7.48013 13
      vertex -0.964293 -7.94167 13
    endloop
  endfacet
  facet normal 0 0 1
    outer loop
      vertex -7.76753 -1.91453 13
      vertex -2.42705 -1.76336 13
      vertex -3 0 13
    endloop
  endfacet
  facet normal -0 0 1
    outer loop
      vertex -7.08365 3.71778 13
      vertex -2.42705 1.76336 13
      vertex -5.98809 5.30498 13
    endloop
  endfacet
  facet normal 0 0 1
    outer loop
      vertex -0.927051 -2.85317 13
      vertex -4.54452 -6.58387 13
      vertex -2.83684 -7.48013 13
    endloop
  endfacet
  facet normal -0 0 1
    outer loop
      vertex -7.76753 1.91453 13
      vertex -2.42705 1.76336 13
      vertex -7.08365 3.71778 13
    endloop
  endfacet
  facet normal 0 0 1
    outer loop
      vertex -2.42705 -1.76336 13
      vertex -5.98809 -5.30498 13
      vertex -4.54452 -6.58387 13
    endloop
  endfacet
  facet normal 0 0 1
    outer loop
      vertex -2.42705 1.76336 13
      vertex -7.76753 1.91453 13
      vertex -3 0 13
    endloop
  endfacet
  facet normal 0 0 1
    outer loop
      vertex -2.42705 -1.76336 13
      vertex -7.08365 -3.71778 13
      vertex -5.98809 -5.30498 13
    endloop
  endfacet
  facet normal 0 0 1
    outer loop
      vertex -8 0 13
      vertex -3 0 13
      vertex -7.76753 1.91453 13
    endloop
  endfacet
  facet normal 0 0 1
    outer loop
      vertex -2.42705 -1.76336 13
      vertex -7.76753 -1.91453 13
      vertex -7.08365 -3.71778 13
    endloop
  endfacet
  facet normal 0 0 1
    outer loop
      vertex -3 0 13
      vertex -8 0 13
      vertex -7.76753 -1.91453 13
    endloop
  endfacet
  facet normal -0.464723 0.885456 0
    outer loop
      vertex -2.83684 7.48013 10
      vertex -4.54452 6.58387 13
      vertex -2.83684 7.48013 13
    endloop
  endfacet
  facet normal -0.464723 0.885456 0
    outer loop
      vertex -4.54452 6.58387 13
      vertex -2.83684 7.48013 10
      vertex -4.54452 6.58387 10
    endloop
  endfacet
  facet normal 0.935016 -0.354605 0
    outer loop
      vertex 7.08365 -3.71778 13
      vertex 7.76753 -1.91453 10
      vertex 7.76753 -1.91453 13
    endloop
  endfacet
  facet normal 0.935016 -0.354605 0
    outer loop
      vertex 7.76753 -1.91453 10
      vertex 7.08365 -3.71778 13
      vertex 7.08365 -3.71778 10
    endloop
  endfacet
  facet normal 0.822984 0.568065 0
    outer loop
      vertex 7.08365 3.71778 13
      vertex 5.98809 5.30498 10
      vertex 5.98809 5.30498 13
    endloop
  endfacet
  facet normal 0.822984 0.568065 0
    outer loop
      vertex 5.98809 5.30498 10
      vertex 7.08365 3.71778 13
      vertex 7.08365 3.71778 10
    endloop
  endfacet
  facet normal 0.935016 0.354605 0
    outer loop
      vertex 7.76753 1.91453 13
      vertex 7.08365 3.71778 10
      vertex 7.08365 3.71778 13
    endloop
  endfacet
  facet normal 0.935016 0.354605 0
    outer loop
      vertex 7.08365 3.71778 10
      vertex 7.76753 1.91453 13
      vertex 7.76753 1.91453 10
    endloop
  endfacet
  facet normal 0.464723 0.885456 -0
    outer loop
      vertex 4.54452 6.58387 10
      vertex 2.83684 7.48013 13
      vertex 4.54452 6.58387 13
    endloop
  endfacet
  facet normal 0.464723 0.885456 0
    outer loop
      vertex 2.83684 7.48013 13
      vertex 4.54452 6.58387 10
      vertex 2.83684 7.48013 10
    endloop
  endfacet
  facet normal -0.822984 0.568065 0
    outer loop
      vertex -7.08365 3.71778 10
      vertex -5.98809 5.30498 13
      vertex -5.98809 5.30498 10
    endloop
  endfacet
  facet normal -0.822984 0.568065 0
    outer loop
      vertex -5.98809 5.30498 13
      vertex -7.08365 3.71778 10
      vertex -7.08365 3.71778 13
    endloop
  endfacet
  facet normal -0.935016 0.354605 0
    outer loop
      vertex -7.76753 1.91453 10
      vertex -7.08365 3.71778 13
      vertex -7.08365 3.71778 10
    endloop
  endfacet
  facet normal -0.935016 0.354605 0
    outer loop
      vertex -7.08365 3.71778 13
      vertex -7.76753 1.91453 10
      vertex -7.76753 1.91453 13
    endloop
  endfacet
  facet normal 0.663123 -0.748511 0
    outer loop
      vertex 4.54452 -6.58387 10
      vertex 5.98809 -5.30498 13
      vertex 4.54452 -6.58387 13
    endloop
  endfacet
  facet normal 0.663123 -0.748511 0
    outer loop
      vertex 5.98809 -5.30498 13
      vertex 4.54452 -6.58387 10
      vertex 5.98809 -5.30498 10
    endloop
  endfacet
  facet normal 0.822984 -0.568065 0
    outer loop
      vertex 5.98809 -5.30498 13
      vertex 7.08365 -3.71778 10
      vertex 7.08365 -3.71778 13
    endloop
  endfacet
  facet normal 0.822984 -0.568065 0
    outer loop
      vertex 7.08365 -3.71778 10
      vertex 5.98809 -5.30498 13
      vertex 5.98809 -5.30498 10
    endloop
  endfacet
  facet normal -0.663123 -0.748511 0
    outer loop
      vertex -5.98809 -5.30498 10
      vertex -4.54452 -6.58387 13
      vertex -5.98809 -5.30498 13
    endloop
  endfacet
  facet normal -0.663123 -0.748511 -0
    outer loop
      vertex -4.54452 -6.58387 13
      vertex -5.98809 -5.30498 10
      vertex -4.54452 -6.58387 10
    endloop
  endfacet
  facet normal -0.935016 -0.354605 0
    outer loop
      vertex -7.08365 -3.71778 10
      vertex -7.76753 -1.91453 13
      vertex -7.76753 -1.91453 10
    endloop
  endfacet
  facet normal -0.935016 -0.354605 0
    outer loop
      vertex -7.76753 -1.91453 13
      vertex -7.08365 -3.71778 10
      vertex -7.08365 -3.71778 13
    endloop
  endfacet
  facet normal -0.822984 -0.568065 0
    outer loop
      vertex -5.98809 -5.30498 10
      vertex -7.08365 -3.71778 13
      vertex -7.08365 -3.71778 10
    endloop
  endfacet
  facet normal -0.822984 -0.568065 0
    outer loop
      vertex -7.08365 -3.71778 13
      vertex -5.98809 -5.30498 10
      vertex -5.98809 -5.30498 13
    endloop
  endfacet
  facet normal 0.464723 -0.885456 0
    outer loop
      vertex 2.83684 -7.48013 10
      vertex 4.54452 -6.58387 13
      vertex 2.83684 -7.48013 13
    endloop
  endfacet
  facet normal 0.464723 -0.885456 0
    outer loop
      vertex 4.54452 -6.58387 13
      vertex 2.83684 -7.48013 10
      vertex 4.54452 -6.58387 10
    endloop
  endfacet
  facet normal -0.464723 -0.885456 0
    outer loop
      vertex -4.54452 -6.58387 10
      vertex -2.83684 -7.48013 13
      vertex -4.54452 -6.58387 13
    endloop
  endfacet
  facet normal -0.464723 -0.885456 -0
    outer loop
      vertex -2.83684 -7.48013 13
      vertex -4.54452 -6.58387 10
      vertex -2.83684 -7.48013 10
    endloop
  endfacet
  facet normal -0.951056 -0.309017 0
    outer loop
      vertex 2.42705 1.76336 0
      vertex 2.67508 1 3
      vertex 2.42705 1.76336 3
    endloop
  endfacet
  facet normal -0.951056 -0.309017 0
    outer loop
      vertex 2.67508 1 3
      vertex 3 0 0
      vertex 2.67508 1 10
    endloop
  endfacet
  facet normal -0.951056 -0.309017 2.29188e-008
    outer loop
      vertex 3 0 0
      vertex 2.67508 1 3
      vertex 2.42705 1.76336 0
    endloop
  endfacet
  facet normal -0.951056 -0.309017 0
    outer loop
      vertex 2.67508 1 10
      vertex 2.42705 1.76336 13
      vertex 2.42705 1.76336 10
    endloop
  endfacet
  facet normal -0.951056 -0.309017 -2.29188e-008
    outer loop
      vertex 2.67508 1 10
      vertex 3 0 13
      vertex 2.42705 1.76336 13
    endloop
  endfacet
  facet normal -0.951056 -0.309017 -0
    outer loop
      vertex 3 0 13
      vertex 2.67508 1 10
      vertex 3 0 0
    endloop
  endfacet
  facet normal 0.951056 -0.309017 0
    outer loop
      vertex -2.42705 1.76336 13
      vertex -2.67508 1 10
      vertex -2.42705 1.76336 10
    endloop
  endfacet
  facet normal 0.951056 -0.309017 0
    outer loop
      vertex -2.67508 1 10
      vertex -3 0 13
      vertex -2.67508 1 3
    endloop
  endfacet
  facet normal 0.951056 -0.309017 -2.29188e-008
    outer loop
      vertex -3 0 13
      vertex -2.67508 1 10
      vertex -2.42705 1.76336 13
    endloop
  endfacet
  facet normal 0.951056 -0.309017 0
    outer loop
      vertex -2.67508 1 3
      vertex -2.42705 1.76336 0
      vertex -2.42705 1.76336 3
    endloop
  endfacet
  facet normal 0.951056 -0.309017 2.29188e-008
    outer loop
      vertex -2.67508 1 3
      vertex -3 0 0
      vertex -2.42705 1.76336 0
    endloop
  endfacet
  facet normal 0.951056 -0.309017 0
    outer loop
      vertex -3 0 0
      vertex -2.67508 1 3
      vertex -3 0 13
    endloop
  endfacet
  facet normal 0 -1 0
    outer loop
      vertex -0.927051 2.85317 0
      vertex 0.927051 2.85317 13
      vertex -0.927051 2.85317 13
    endloop
  endfacet
  facet normal 0 -1 -0
    outer loop
      vertex 0.927051 2.85317 13
      vertex -0.927051 2.85317 0
      vertex 0.927051 2.85317 0
    endloop
  endfacet
  facet normal -0.587785 -0.809017 1.60245e-008
    outer loop
      vertex 0.927051 2.85317 13
      vertex 1 2.80017 10
      vertex 2.42705 1.76336 13
    endloop
  endfacet
  facet normal -0.587786 -0.809017 0
    outer loop
      vertex 0.927051 2.85317 13
      vertex 1 2.80017 3
      vertex 1 2.80017 10
    endloop
  endfacet
  facet normal -0.587786 -0.809017 0
    outer loop
      vertex 0.927051 2.85317 0
      vertex 1 2.80017 3
      vertex 0.927051 2.85317 13
    endloop
  endfacet
  facet normal -0.587785 -0.809017 -1.60245e-008
    outer loop
      vertex 2.42705 1.76336 0
      vertex 1 2.80017 3
      vertex 0.927051 2.85317 0
    endloop
  endfacet
  facet normal -0.587785 -0.809017 0
    outer loop
      vertex 1 2.80017 3
      vertex 2.42705 1.76336 0
      vertex 2.42705 1.76336 3
    endloop
  endfacet
  facet normal -0.587785 -0.809017 -0
    outer loop
      vertex 2.42705 1.76336 13
      vertex 1 2.80017 10
      vertex 2.42705 1.76336 10
    endloop
  endfacet
  facet normal 0.587785 -0.809017 0
    outer loop
      vertex -2.42705 1.76336 3
      vertex -2.42705 1.76336 0
      vertex -1 2.80017 3
    endloop
  endfacet
  facet normal 0.587785 -0.809017 0
    outer loop
      vertex -1 2.80017 10
      vertex -2.42705 1.76336 13
      vertex -2.42705 1.76336 10
    endloop
  endfacet
  facet normal 0.587785 -0.809017 1.60245e-008
    outer loop
      vertex -2.42705 1.76336 13
      vertex -1 2.80017 10
      vertex -0.927051 2.85317 13
    endloop
  endfacet
  facet normal 0.587786 -0.809017 0
    outer loop
      vertex -1 2.80017 3
      vertex -0.927051 2.85317 13
      vertex -1 2.80017 10
    endloop
  endfacet
  facet normal 0.587786 -0.809017 0
    outer loop
      vertex -1 2.80017 3
      vertex -0.927051 2.85317 0
      vertex -0.927051 2.85317 13
    endloop
  endfacet
  facet normal 0.587785 -0.809017 -1.60245e-008
    outer loop
      vertex -0.927051 2.85317 0
      vertex -1 2.80017 3
      vertex -2.42705 1.76336 0
    endloop
  endfacet
  facet normal -0.951056 0.309017 0
    outer loop
      vertex 3 0 0
      vertex 2.67508 -1 3
      vertex 3 0 13
    endloop
  endfacet
  facet normal -0.951056 0.309017 2.29188e-008
    outer loop
      vertex 2.42705 -1.76336 0
      vertex 2.67508 -1 3
      vertex 3 0 0
    endloop
  endfacet
  facet normal -0.951056 0.309017 0
    outer loop
      vertex 2.67508 -1 3
      vertex 2.42705 -1.76336 0
      vertex 2.42705 -1.76336 3
    endloop
  endfacet
  facet normal -0.951056 0.309017 0
    outer loop
      vertex 2.67508 -1 10
      vertex 3 0 13
      vertex 2.67508 -1 3
    endloop
  endfacet
  facet normal -0.951056 0.309017 0
    outer loop
      vertex 2.42705 -1.76336 13
      vertex 2.67508 -1 10
      vertex 2.42705 -1.76336 10
    endloop
  endfacet
  facet normal -0.951056 0.309017 -2.29188e-008
    outer loop
      vertex 2.67508 -1 10
      vertex 2.42705 -1.76336 13
      vertex 3 0 13
    endloop
  endfacet
  facet normal 0.951056 0.309017 0
    outer loop
      vertex -3 0 13
      vertex -2.67508 -1 10
      vertex -3 0 0
    endloop
  endfacet
  facet normal 0.951056 0.309017 -2.29188e-008
    outer loop
      vertex -2.42705 -1.76336 13
      vertex -2.67508 -1 10
      vertex -3 0 13
    endloop
  endfacet
  facet normal 0.951056 0.309017 0
    outer loop
      vertex -2.67508 -1 10
      vertex -2.42705 -1.76336 13
      vertex -2.42705 -1.76336 10
    endloop
  endfacet
  facet normal 0.951056 0.309017 -0
    outer loop
      vertex -2.67508 -1 3
      vertex -3 0 0
      vertex -2.67508 -1 10
    endloop
  endfacet
  facet normal 0.951056 0.309017 -0
    outer loop
      vertex -2.42705 -1.76336 0
      vertex -2.67508 -1 3
      vertex -2.42705 -1.76336 3
    endloop
  endfacet
  facet normal 0.951056 0.309017 2.29188e-008
    outer loop
      vertex -2.67508 -1 3
      vertex -2.42705 -1.76336 0
      vertex -3 0 0
    endloop
  endfacet
  facet normal 0 1 -0
    outer loop
      vertex 0.927051 -2.85317 0
      vertex -0.927051 -2.85317 13
      vertex 0.927051 -2.85317 13
    endloop
  endfacet
  facet normal 0 1 0
    outer loop
      vertex -0.927051 -2.85317 13
      vertex 0.927051 -2.85317 0
      vertex -0.927051 -2.85317 0
    endloop
  endfacet
  facet normal -0.587785 0.809017 0
    outer loop
      vertex 2.42705 -1.76336 3
      vertex 2.42705 -1.76336 0
      vertex 1 -2.80017 3
    endloop
  endfacet
  facet normal -0.587785 0.809017 0
    outer loop
      vertex 1 -2.80017 10
      vertex 2.42705 -1.76336 13
      vertex 2.42705 -1.76336 10
    endloop
  endfacet
  facet normal -0.587785 0.809017 1.60245e-008
    outer loop
      vertex 2.42705 -1.76336 13
      vertex 1 -2.80017 10
      vertex 0.927051 -2.85317 13
    endloop
  endfacet
  facet normal -0.587786 0.809017 0
    outer loop
      vertex 1 -2.80017 3
      vertex 0.927051 -2.85317 13
      vertex 1 -2.80017 10
    endloop
  endfacet
  facet normal -0.587786 0.809017 0
    outer loop
      vertex 1 -2.80017 3
      vertex 0.927051 -2.85317 0
      vertex 0.927051 -2.85317 13
    endloop
  endfacet
  facet normal -0.587785 0.809017 -1.60245e-008
    outer loop
      vertex 0.927051 -2.85317 0
      vertex 1 -2.80017 3
      vertex 2.42705 -1.76336 0
    endloop
  endfacet
  facet normal 0.587785 0.809017 1.60245e-008
    outer loop
      vertex -0.927051 -2.85317 13
      vertex -1 -2.80017 10
      vertex -2.42705 -1.76336 13
    endloop
  endfacet
  facet normal 0.587786 0.809017 0
    outer loop
      vertex -0.927051 -2.85317 13
      vertex -1 -2.80017 3
      vertex -1 -2.80017 10
    endloop
  endfacet
  facet normal 0.587786 0.809017 -0
    outer loop
      vertex -0.927051 -2.85317 0
      vertex -1 -2.80017 3
      vertex -0.927051 -2.85317 13
    endloop
  endfacet
  facet normal 0.587785 0.809017 -1.60245e-008
    outer loop
      vertex -2.42705 -1.76336 0
      vertex -1 -2.80017 3
      vertex -0.927051 -2.85317 0
    endloop
  endfacet
  facet normal 0.587785 0.809017 0
    outer loop
      vertex -1 -2.80017 3
      vertex -2.42705 -1.76336 0
      vertex -2.42705 -1.76336 3
    endloop
  endfacet
  facet normal 0.587785 0.809017 0
    outer loop
      vertex -2.42705 -1.76336 13
      vertex -1 -2.80017 10
      vertex -2.42705 -1.76336 10
    endloop
  endfacet
endsolid OpenSCAD_Model
