solid OpenSCAD_Model
  facet normal -1 0 0
    outer loop
      vertex 0 90 0
      vertex 0 0 8
      vertex 0 90 8
    endloop
  endfacet
  facet normal -1 0 0
    outer loop
      vertex 0 -8 24
      vertex 0 0 8
      vertex 0 -8 0
    endloop
  endfacet
  facet normal -1 0 0
    outer loop
      vertex 0 -8 0
      vertex 0 0 8
      vertex 0 90 0
    endloop
  endfacet
  facet normal -1 0 0
    outer loop
      vertex 0 0 21
      vertex 0 8 24
      vertex 0 8 21
    endloop
  endfacet
  facet normal -1 0 0
    outer loop
      vertex 0 0 21
      vertex 0 -8 24
      vertex 0 8 24
    endloop
  endfacet
  facet normal -1 0 0
    outer loop
      vertex 0 0 8
      vertex 0 -8 24
      vertex 0 0 21
    endloop
  endfacet
  facet normal 0 0 1
    outer loop
      vertex 30 90 8
      vertex 26 0 8
      vertex 30 0 8
    endloop
  endfacet
  facet normal 0 0 1
    outer loop
      vertex 30 90 8
      vertex 4 0 8
      vertex 26 0 8
    endloop
  endfacet
  facet normal -0 0 1
    outer loop
      vertex 0 90 8
      vertex 4 0 8
      vertex 30 90 8
    endloop
  endfacet
  facet normal 0 0 1
    outer loop
      vertex 4 0 8
      vertex 0 90 8
      vertex 0 0 8
    endloop
  endfacet
  facet normal 1 0 0
    outer loop
      vertex 30 8 24
      vertex 30 0 21
      vertex 30 8 21
    endloop
  endfacet
  facet normal 1 0 0
    outer loop
      vertex 30 0 21
      vertex 30 -8 24
      vertex 30 0 8
    endloop
  endfacet
  facet normal 1 -0 0
    outer loop
      vertex 30 -8 24
      vertex 30 0 21
      vertex 30 8 24
    endloop
  endfacet
  facet normal 1 -0 0
    outer loop
      vertex 30 0 8
      vertex 30 90 0
      vertex 30 90 8
    endloop
  endfacet
  facet normal 1 0 0
    outer loop
      vertex 30 0 8
      vertex 30 -8 0
      vertex 30 90 0
    endloop
  endfacet
  facet normal 1 0 0
    outer loop
      vertex 30 -8 0
      vertex 30 0 8
      vertex 30 -8 24
    endloop
  endfacet
  facet normal 0 1 -0
    outer loop
      vertex 30 90 0
      vertex 0 90 8
      vertex 30 90 8
    endloop
  endfacet
  facet normal 0 1 0
    outer loop
      vertex 0 90 8
      vertex 30 90 0
      vertex 0 90 0
    endloop
  endfacet
  facet normal 0 0 -1
    outer loop
      vertex 0 -8 0
      vertex 4 0 0
      vertex 4 -8 0
    endloop
  endfacet
  facet normal 0 0 -1
    outer loop
      vertex 0 -8 0
      vertex 2 22 0
      vertex 2 2 0
    endloop
  endfacet
  facet normal -0 0 -1
    outer loop
      vertex 2 22 0
      vertex 0 -8 0
      vertex 2 24 0
    endloop
  endfacet
  facet normal -0 0 -1
    outer loop
      vertex 2 24 0
      vertex 0 -8 0
      vertex 2 44 0
    endloop
  endfacet
  facet normal -0 0 -1
    outer loop
      vertex 2 44 0
      vertex 0 -8 0
      vertex 2 46 0
    endloop
  endfacet
  facet normal 0 0 -1
    outer loop
      vertex 0 90 0
      vertex 2 46 0
      vertex 0 -8 0
    endloop
  endfacet
  facet normal 0 0 -1
    outer loop
      vertex 2 46 0
      vertex 0 90 0
      vertex 2 61 0
    endloop
  endfacet
  facet normal 0 0 -1
    outer loop
      vertex 2 61 0
      vertex 0 90 0
      vertex 2 69 0
    endloop
  endfacet
  facet normal -0 0 -1
    outer loop
      vertex 4 0 0
      vertex 0 -8 0
      vertex 2 2 0
    endloop
  endfacet
  facet normal 0 0 -1
    outer loop
      vertex 28 61 0
      vertex 27 63 0
      vertex 28 69 0
    endloop
  endfacet
  facet normal 0 0 -1
    outer loop
      vertex 28 61 0
      vertex 3 63 0
      vertex 27 63 0
    endloop
  endfacet
  facet normal -0 0 -1
    outer loop
      vertex 3 63 0
      vertex 2 61 0
      vertex 3 67 0
    endloop
  endfacet
  facet normal 0 0 -1
    outer loop
      vertex 2 61 0
      vertex 3 63 0
      vertex 28 61 0
    endloop
  endfacet
  facet normal 0 0 -1
    outer loop
      vertex 2 44 0
      vertex 28 46 0
      vertex 28 44 0
    endloop
  endfacet
  facet normal -0 0 -1
    outer loop
      vertex 28 46 0
      vertex 2 44 0
      vertex 2 46 0
    endloop
  endfacet
  facet normal 0 0 -1
    outer loop
      vertex 2 22 0
      vertex 28 24 0
      vertex 28 22 0
    endloop
  endfacet
  facet normal -0 0 -1
    outer loop
      vertex 28 24 0
      vertex 2 22 0
      vertex 2 24 0
    endloop
  endfacet
  facet normal 0 0 -1
    outer loop
      vertex 28 22 0
      vertex 30 -8 0
      vertex 28 2 0
    endloop
  endfacet
  facet normal 0 0 -1
    outer loop
      vertex 26 0 0
      vertex 30 -8 0
      vertex 26 -8 0
    endloop
  endfacet
  facet normal 0 0 -1
    outer loop
      vertex 30 -8 0
      vertex 26 0 0
      vertex 28 2 0
    endloop
  endfacet
  facet normal 0 0 -1
    outer loop
      vertex 4 0 0
      vertex 28 2 0
      vertex 26 0 0
    endloop
  endfacet
  facet normal -0 0 -1
    outer loop
      vertex 28 2 0
      vertex 4 0 0
      vertex 2 2 0
    endloop
  endfacet
  facet normal 0 0 -1
    outer loop
      vertex 28 24 0
      vertex 30 -8 0
      vertex 28 22 0
    endloop
  endfacet
  facet normal 0 0 -1
    outer loop
      vertex 28 44 0
      vertex 30 -8 0
      vertex 28 24 0
    endloop
  endfacet
  facet normal 0 0 -1
    outer loop
      vertex 30 -8 0
      vertex 28 44 0
      vertex 30 90 0
    endloop
  endfacet
  facet normal 0 0 -1
    outer loop
      vertex 28 46 0
      vertex 30 90 0
      vertex 28 44 0
    endloop
  endfacet
  facet normal 0 0 -1
    outer loop
      vertex 28 61 0
      vertex 30 90 0
      vertex 28 46 0
    endloop
  endfacet
  facet normal 0 0 -1
    outer loop
      vertex 28 69 0
      vertex 30 90 0
      vertex 28 61 0
    endloop
  endfacet
  facet normal 0 0 -1
    outer loop
      vertex 28 88 0
      vertex 30 90 0
      vertex 28 69 0
    endloop
  endfacet
  facet normal 0 0 -1
    outer loop
      vertex 2 88 0
      vertex 30 90 0
      vertex 28 88 0
    endloop
  endfacet
  facet normal 0 0 -1
    outer loop
      vertex 2 88 0
      vertex 0 90 0
      vertex 30 90 0
    endloop
  endfacet
  facet normal 0 0 -1
    outer loop
      vertex 2 69 0
      vertex 0 90 0
      vertex 2 88 0
    endloop
  endfacet
  facet normal 0 0 -1
    outer loop
      vertex 27 67 0
      vertex 28 69 0
      vertex 27 63 0
    endloop
  endfacet
  facet normal 0 0 -1
    outer loop
      vertex 3 67 0
      vertex 28 69 0
      vertex 27 67 0
    endloop
  endfacet
  facet normal 0 0 -1
    outer loop
      vertex 3 67 0
      vertex 2 69 0
      vertex 28 69 0
    endloop
  endfacet
  facet normal 0 0 -1
    outer loop
      vertex 2 69 0
      vertex 3 67 0
      vertex 2 61 0
    endloop
  endfacet
  facet normal 0 1 -0
    outer loop
      vertex 4 0 8
      vertex 0 0 21
      vertex 4 0 21
    endloop
  endfacet
  facet normal 0 1 0
    outer loop
      vertex 0 0 21
      vertex 4 0 8
      vertex 0 0 8
    endloop
  endfacet
  facet normal 0 1 -0
    outer loop
      vertex 30 0 8
      vertex 26 0 21
      vertex 30 0 21
    endloop
  endfacet
  facet normal 0 1 0
    outer loop
      vertex 26 0 21
      vertex 30 0 8
      vertex 26 0 8
    endloop
  endfacet
  facet normal 0 -1 0
    outer loop
      vertex 4 0 0
      vertex 26 0 8
      vertex 4 0 8
    endloop
  endfacet
  facet normal 0 -1 -0
    outer loop
      vertex 26 0 8
      vertex 4 0 0
      vertex 26 0 0
    endloop
  endfacet
  facet normal 0 -1 0
    outer loop
      vertex 4 0 21
      vertex 26 0 24
      vertex 4 0 24
    endloop
  endfacet
  facet normal 0 -1 -0
    outer loop
      vertex 26 0 24
      vertex 4 0 21
      vertex 26 0 21
    endloop
  endfacet
  facet normal 1 -0 0
    outer loop
      vertex 2 2 6
      vertex 2 22 0
      vertex 2 22 6
    endloop
  endfacet
  facet normal 1 0 0
    outer loop
      vertex 2 22 0
      vertex 2 2 6
      vertex 2 2 0
    endloop
  endfacet
  facet normal 0 0 -1
    outer loop
      vertex 2 2 6
      vertex 28 22 6
      vertex 28 2 6
    endloop
  endfacet
  facet normal -0 0 -1
    outer loop
      vertex 28 22 6
      vertex 2 2 6
      vertex 2 22 6
    endloop
  endfacet
  facet normal -1 0 0
    outer loop
      vertex 28 2 0
      vertex 28 22 6
      vertex 28 22 0
    endloop
  endfacet
  facet normal -1 -0 0
    outer loop
      vertex 28 22 6
      vertex 28 2 0
      vertex 28 2 6
    endloop
  endfacet
  facet normal 0 1 -0
    outer loop
      vertex 28 2 0
      vertex 2 2 6
      vertex 28 2 6
    endloop
  endfacet
  facet normal 0 1 0
    outer loop
      vertex 2 2 6
      vertex 28 2 0
      vertex 2 2 0
    endloop
  endfacet
  facet normal 0 -1 0
    outer loop
      vertex 2 22 0
      vertex 28 22 6
      vertex 2 22 6
    endloop
  endfacet
  facet normal 0 -1 -0
    outer loop
      vertex 28 22 6
      vertex 2 22 0
      vertex 28 22 0
    endloop
  endfacet
  facet normal 1 -0 0
    outer loop
      vertex 2 24 6
      vertex 2 44 0
      vertex 2 44 6
    endloop
  endfacet
  facet normal 1 0 0
    outer loop
      vertex 2 44 0
      vertex 2 24 6
      vertex 2 24 0
    endloop
  endfacet
  facet normal 0 0 -1
    outer loop
      vertex 2 24 6
      vertex 28 44 6
      vertex 28 24 6
    endloop
  endfacet
  facet normal -0 0 -1
    outer loop
      vertex 28 44 6
      vertex 2 24 6
      vertex 2 44 6
    endloop
  endfacet
  facet normal -1 0 0
    outer loop
      vertex 28 24 0
      vertex 28 44 6
      vertex 28 44 0
    endloop
  endfacet
  facet normal -1 -0 0
    outer loop
      vertex 28 44 6
      vertex 28 24 0
      vertex 28 24 6
    endloop
  endfacet
  facet normal 0 -1 0
    outer loop
      vertex 2 44 0
      vertex 28 44 6
      vertex 2 44 6
    endloop
  endfacet
  facet normal 0 -1 -0
    outer loop
      vertex 28 44 6
      vertex 2 44 0
      vertex 28 44 0
    endloop
  endfacet
  facet normal 0 1 -0
    outer loop
      vertex 28 24 0
      vertex 2 24 6
      vertex 28 24 6
    endloop
  endfacet
  facet normal 0 1 0
    outer loop
      vertex 2 24 6
      vertex 28 24 0
      vertex 2 24 0
    endloop
  endfacet
  facet normal 1 -0 0
    outer loop
      vertex 2 46 6
      vertex 2 61 0
      vertex 2 61 6
    endloop
  endfacet
  facet normal 1 0 0
    outer loop
      vertex 2 61 0
      vertex 2 46 6
      vertex 2 46 0
    endloop
  endfacet
  facet normal 0 0 -1
    outer loop
      vertex 2 46 6
      vertex 28 61 6
      vertex 28 46 6
    endloop
  endfacet
  facet normal -0 0 -1
    outer loop
      vertex 28 61 6
      vertex 2 46 6
      vertex 2 61 6
    endloop
  endfacet
  facet normal -1 0 0
    outer loop
      vertex 28 46 0
      vertex 28 61 6
      vertex 28 61 0
    endloop
  endfacet
  facet normal -1 -0 0
    outer loop
      vertex 28 61 6
      vertex 28 46 0
      vertex 28 46 6
    endloop
  endfacet
  facet normal 0 1 -0
    outer loop
      vertex 28 46 0
      vertex 2 46 6
      vertex 28 46 6
    endloop
  endfacet
  facet normal 0 1 0
    outer loop
      vertex 2 46 6
      vertex 28 46 0
      vertex 2 46 0
    endloop
  endfacet
  facet normal 0 -1 0
    outer loop
      vertex 2 61 0
      vertex 28 61 6
      vertex 2 61 6
    endloop
  endfacet
  facet normal 0 -1 -0
    outer loop
      vertex 28 61 6
      vertex 2 61 0
      vertex 28 61 0
    endloop
  endfacet
  facet normal 1 -0 0
    outer loop
      vertex 3 63 6
      vertex 3 67 0
      vertex 3 67 6
    endloop
  endfacet
  facet normal 1 0 0
    outer loop
      vertex 3 67 0
      vertex 3 63 6
      vertex 3 63 0
    endloop
  endfacet
  facet normal 0 0 -1
    outer loop
      vertex 3 63 6
      vertex 27 67 6
      vertex 27 63 6
    endloop
  endfacet
  facet normal -0 0 -1
    outer loop
      vertex 27 67 6
      vertex 3 63 6
      vertex 3 67 6
    endloop
  endfacet
  facet normal -1 0 0
    outer loop
      vertex 27 63 0
      vertex 27 67 6
      vertex 27 67 0
    endloop
  endfacet
  facet normal -1 -0 0
    outer loop
      vertex 27 67 6
      vertex 27 63 0
      vertex 27 63 6
    endloop
  endfacet
  facet normal 0 -1 0
    outer loop
      vertex 3 67 0
      vertex 27 67 6
      vertex 3 67 6
    endloop
  endfacet
  facet normal 0 -1 -0
    outer loop
      vertex 27 67 6
      vertex 3 67 0
      vertex 27 67 0
    endloop
  endfacet
  facet normal 0 1 -0
    outer loop
      vertex 27 63 0
      vertex 3 63 6
      vertex 27 63 6
    endloop
  endfacet
  facet normal 0 1 0
    outer loop
      vertex 3 63 6
      vertex 27 63 0
      vertex 3 63 0
    endloop
  endfacet
  facet normal 1 -0 0
    outer loop
      vertex 2 69 6
      vertex 2 88 0
      vertex 2 88 6
    endloop
  endfacet
  facet normal 1 0 0
    outer loop
      vertex 2 88 0
      vertex 2 69 6
      vertex 2 69 0
    endloop
  endfacet
  facet normal 0 0 -1
    outer loop
      vertex 2 69 6
      vertex 28 88 6
      vertex 28 69 6
    endloop
  endfacet
  facet normal -0 0 -1
    outer loop
      vertex 28 88 6
      vertex 2 69 6
      vertex 2 88 6
    endloop
  endfacet
  facet normal -1 0 0
    outer loop
      vertex 28 69 0
      vertex 28 88 6
      vertex 28 88 0
    endloop
  endfacet
  facet normal -1 -0 0
    outer loop
      vertex 28 88 6
      vertex 28 69 0
      vertex 28 69 6
    endloop
  endfacet
  facet normal 0 1 -0
    outer loop
      vertex 28 69 0
      vertex 2 69 6
      vertex 28 69 6
    endloop
  endfacet
  facet normal 0 1 0
    outer loop
      vertex 2 69 6
      vertex 28 69 0
      vertex 2 69 0
    endloop
  endfacet
  facet normal 0 -1 0
    outer loop
      vertex 2 88 0
      vertex 28 88 6
      vertex 2 88 6
    endloop
  endfacet
  facet normal 0 -1 -0
    outer loop
      vertex 28 88 6
      vertex 2 88 0
      vertex 28 88 0
    endloop
  endfacet
  facet normal 0 0 1
    outer loop
      vertex 30 8 24
      vertex 26 0 24
      vertex 30 -8 24
    endloop
  endfacet
  facet normal 0 0 1
    outer loop
      vertex 30 8 24
      vertex 4 0 24
      vertex 26 0 24
    endloop
  endfacet
  facet normal -0 0 1
    outer loop
      vertex 0 8 24
      vertex 4 0 24
      vertex 30 8 24
    endloop
  endfacet
  facet normal 0 0 1
    outer loop
      vertex 0 -8 24
      vertex 4 0 24
      vertex 0 8 24
    endloop
  endfacet
  facet normal 0 0 1
    outer loop
      vertex 4 0 24
      vertex 0 -8 24
      vertex 4 -8 24
    endloop
  endfacet
  facet normal 0 0 1
    outer loop
      vertex 30 -8 24
      vertex 26 0 24
      vertex 26 -8 24
    endloop
  endfacet
  facet normal 1 -0 0
    outer loop
      vertex 4 -8 24
      vertex 4 0 21
      vertex 4 0 24
    endloop
  endfacet
  facet normal 1 0 0
    outer loop
      vertex 4 0 21
      vertex 4 -8 24
      vertex 4 0 8
    endloop
  endfacet
  facet normal 1 0 0
    outer loop
      vertex 4 -8 0
      vertex 4 0 8
      vertex 4 -8 24
    endloop
  endfacet
  facet normal 1 0 0
    outer loop
      vertex 4 0 8
      vertex 4 -8 0
      vertex 4 0 0
    endloop
  endfacet
  facet normal 0 -1 0
    outer loop
      vertex 0 -8 0
      vertex 4 -8 24
      vertex 0 -8 24
    endloop
  endfacet
  facet normal 0 -1 -0
    outer loop
      vertex 4 -8 24
      vertex 0 -8 0
      vertex 4 -8 0
    endloop
  endfacet
  facet normal -1 0 0
    outer loop
      vertex 26 -8 0
      vertex 26 0 8
      vertex 26 0 0
    endloop
  endfacet
  facet normal -1 0 0
    outer loop
      vertex 26 -8 24
      vertex 26 0 8
      vertex 26 -8 0
    endloop
  endfacet
  facet normal -1 0 0
    outer loop
      vertex 26 0 8
      vertex 26 -8 24
      vertex 26 0 21
    endloop
  endfacet
  facet normal -1 0 0
    outer loop
      vertex 26 0 21
      vertex 26 -8 24
      vertex 26 0 24
    endloop
  endfacet
  facet normal 0 -1 0
    outer loop
      vertex 26 -8 0
      vertex 30 -8 24
      vertex 26 -8 24
    endloop
  endfacet
  facet normal 0 -1 -0
    outer loop
      vertex 30 -8 24
      vertex 26 -8 0
      vertex 30 -8 0
    endloop
  endfacet
  facet normal 0 1 -0
    outer loop
      vertex 30 8 21
      vertex 0 8 24
      vertex 30 8 24
    endloop
  endfacet
  facet normal 0 1 0
    outer loop
      vertex 0 8 24
      vertex 30 8 21
      vertex 0 8 21
    endloop
  endfacet
  facet normal 0 0 -1
    outer loop
      vertex 26 0 21
      vertex 30 8 21
      vertex 30 0 21
    endloop
  endfacet
  facet normal 0 0 -1
    outer loop
      vertex 4 0 21
      vertex 30 8 21
      vertex 26 0 21
    endloop
  endfacet
  facet normal 0 0 -1
    outer loop
      vertex 0 8 21
      vertex 4 0 21
      vertex 0 0 21
    endloop
  endfacet
  facet normal 0 0 -1
    outer loop
      vertex 4 0 21
      vertex 0 8 21
      vertex 30 8 21
    endloop
  endfacet
endsolid OpenSCAD_Model
