solid OpenSCAD_Model
  facet normal -1 0 0
    outer loop
      vertex 0 90 0
      vertex 0 0 8
      vertex 0 90 8
    endloop
  endfacet
  facet normal -1 0 0
    outer loop
      vertex 0 -8 24
      vertex 0 0 8
      vertex 0 -8 0
    endloop
  endfacet
  facet normal -1 0 0
    outer loop
      vertex 0 -8 0
      vertex 0 0 8
      vertex 0 90 0
    endloop
  endfacet
  facet normal -1 0 0
    outer loop
      vertex 0 0 20
      vertex 0 8 24
      vertex 0 8 20
    endloop
  endfacet
  facet normal -1 0 0
    outer loop
      vertex 0 0 20
      vertex 0 -8 24
      vertex 0 8 24
    endloop
  endfacet
  facet normal -1 0 0
    outer loop
      vertex 0 0 8
      vertex 0 -8 24
      vertex 0 0 20
    endloop
  endfacet
  facet normal 0 0 1
    outer loop
      vertex 30 90 8
      vertex 22 0 8
      vertex 30 0 8
    endloop
  endfacet
  facet normal 0 0 1
    outer loop
      vertex 22 0 8
      vertex 8 0 8
      vertex 22 -8 8
    endloop
  endfacet
  facet normal 0 0 1
    outer loop
      vertex 30 90 8
      vertex 8 0 8
      vertex 22 0 8
    endloop
  endfacet
  facet normal -0 0 1
    outer loop
      vertex 0 90 8
      vertex 8 0 8
      vertex 30 90 8
    endloop
  endfacet
  facet normal 0 0 1
    outer loop
      vertex 8 0 8
      vertex 0 90 8
      vertex 0 0 8
    endloop
  endfacet
  facet normal 0 0 1
    outer loop
      vertex 22 -8 8
      vertex 8 0 8
      vertex 8 -8 8
    endloop
  endfacet
  facet normal 1 0 0
    outer loop
      vertex 30 8 24
      vertex 30 0 20
      vertex 30 8 20
    endloop
  endfacet
  facet normal 1 0 0
    outer loop
      vertex 30 0 20
      vertex 30 -8 24
      vertex 30 0 8
    endloop
  endfacet
  facet normal 1 -0 0
    outer loop
      vertex 30 -8 24
      vertex 30 0 20
      vertex 30 8 24
    endloop
  endfacet
  facet normal 1 -0 0
    outer loop
      vertex 30 0 8
      vertex 30 90 0
      vertex 30 90 8
    endloop
  endfacet
  facet normal 1 0 0
    outer loop
      vertex 30 0 8
      vertex 30 -8 0
      vertex 30 90 0
    endloop
  endfacet
  facet normal 1 0 0
    outer loop
      vertex 30 -8 0
      vertex 30 0 8
      vertex 30 -8 24
    endloop
  endfacet
  facet normal 0 0 -1
    outer loop
      vertex 4 68 0
      vertex 26 72 0
      vertex 26 68 0
    endloop
  endfacet
  facet normal -0 0 -1
    outer loop
      vertex 26 72 0
      vertex 4 68 0
      vertex 4 72 0
    endloop
  endfacet
  facet normal 0 0 -1
    outer loop
      vertex 4 60 0
      vertex 26 64 0
      vertex 26 60 0
    endloop
  endfacet
  facet normal -0 0 -1
    outer loop
      vertex 26 64 0
      vertex 4 60 0
      vertex 4 64 0
    endloop
  endfacet
  facet normal 0 0 -1
    outer loop
      vertex 4 48 0
      vertex 26 52 0
      vertex 26 48 0
    endloop
  endfacet
  facet normal -0 0 -1
    outer loop
      vertex 26 52 0
      vertex 4 48 0
      vertex 4 52 0
    endloop
  endfacet
  facet normal 0 0 -1
    outer loop
      vertex 4 24 0
      vertex 26 28 0
      vertex 26 24 0
    endloop
  endfacet
  facet normal -0 0 -1
    outer loop
      vertex 26 28 0
      vertex 4 24 0
      vertex 4 28 0
    endloop
  endfacet
  facet normal 0 0 -1
    outer loop
      vertex 26 24 0
      vertex 30 -8 0
      vertex 26 4 0
    endloop
  endfacet
  facet normal 0 0 -1
    outer loop
      vertex 30 -8 0
      vertex 4 4 0
      vertex 26 4 0
    endloop
  endfacet
  facet normal 0 0 -1
    outer loop
      vertex 0 -8 0
      vertex 4 24 0
      vertex 4 4 0
    endloop
  endfacet
  facet normal -0 0 -1
    outer loop
      vertex 4 24 0
      vertex 0 -8 0
      vertex 4 28 0
    endloop
  endfacet
  facet normal -0 0 -1
    outer loop
      vertex 4 28 0
      vertex 0 -8 0
      vertex 4 48 0
    endloop
  endfacet
  facet normal 0 0 -1
    outer loop
      vertex 0 90 0
      vertex 4 48 0
      vertex 0 -8 0
    endloop
  endfacet
  facet normal 0 0 -1
    outer loop
      vertex 4 48 0
      vertex 0 90 0
      vertex 4 52 0
    endloop
  endfacet
  facet normal 0 0 -1
    outer loop
      vertex 4 52 0
      vertex 0 90 0
      vertex 4 60 0
    endloop
  endfacet
  facet normal 0 0 -1
    outer loop
      vertex 4 60 0
      vertex 0 90 0
      vertex 4 64 0
    endloop
  endfacet
  facet normal 0 0 -1
    outer loop
      vertex 4 64 0
      vertex 0 90 0
      vertex 4 68 0
    endloop
  endfacet
  facet normal 0 0 -1
    outer loop
      vertex 4 68 0
      vertex 0 90 0
      vertex 4 72 0
    endloop
  endfacet
  facet normal 0 0 -1
    outer loop
      vertex 0 -8 0
      vertex 4 4 0
      vertex 30 -8 0
    endloop
  endfacet
  facet normal 0 0 -1
    outer loop
      vertex 26 28 0
      vertex 30 -8 0
      vertex 26 24 0
    endloop
  endfacet
  facet normal 0 0 -1
    outer loop
      vertex 26 48 0
      vertex 30 -8 0
      vertex 26 28 0
    endloop
  endfacet
  facet normal 0 0 -1
    outer loop
      vertex 30 -8 0
      vertex 26 48 0
      vertex 30 90 0
    endloop
  endfacet
  facet normal 0 0 -1
    outer loop
      vertex 26 52 0
      vertex 30 90 0
      vertex 26 48 0
    endloop
  endfacet
  facet normal 0 0 -1
    outer loop
      vertex 26 60 0
      vertex 30 90 0
      vertex 26 52 0
    endloop
  endfacet
  facet normal 0 0 -1
    outer loop
      vertex 26 64 0
      vertex 30 90 0
      vertex 26 60 0
    endloop
  endfacet
  facet normal 0 0 -1
    outer loop
      vertex 26 68 0
      vertex 30 90 0
      vertex 26 64 0
    endloop
  endfacet
  facet normal 0 0 -1
    outer loop
      vertex 26 72 0
      vertex 30 90 0
      vertex 26 68 0
    endloop
  endfacet
  facet normal 0 0 -1
    outer loop
      vertex 26 86 0
      vertex 30 90 0
      vertex 26 72 0
    endloop
  endfacet
  facet normal 0 0 -1
    outer loop
      vertex 4 86 0
      vertex 30 90 0
      vertex 26 86 0
    endloop
  endfacet
  facet normal 0 0 -1
    outer loop
      vertex 4 86 0
      vertex 0 90 0
      vertex 30 90 0
    endloop
  endfacet
  facet normal 0 0 -1
    outer loop
      vertex 4 72 0
      vertex 0 90 0
      vertex 4 86 0
    endloop
  endfacet
  facet normal 0 1 -0
    outer loop
      vertex 8 0 8
      vertex 0 0 20
      vertex 8 0 20
    endloop
  endfacet
  facet normal 0 1 0
    outer loop
      vertex 0 0 20
      vertex 8 0 8
      vertex 0 0 8
    endloop
  endfacet
  facet normal 0 1 -0
    outer loop
      vertex 30 0 8
      vertex 22 0 20
      vertex 30 0 20
    endloop
  endfacet
  facet normal 0 1 0
    outer loop
      vertex 22 0 20
      vertex 30 0 8
      vertex 22 0 8
    endloop
  endfacet
  facet normal 0 1 -0
    outer loop
      vertex 30 90 0
      vertex 0 90 8
      vertex 30 90 8
    endloop
  endfacet
  facet normal 0 1 0
    outer loop
      vertex 0 90 8
      vertex 30 90 0
      vertex 0 90 0
    endloop
  endfacet
  facet normal 1 -0 0
    outer loop
      vertex 4 4 6
      vertex 4 24 0
      vertex 4 24 6
    endloop
  endfacet
  facet normal 1 0 0
    outer loop
      vertex 4 24 0
      vertex 4 4 6
      vertex 4 4 0
    endloop
  endfacet
  facet normal 0 0 -1
    outer loop
      vertex 4 4 6
      vertex 26 24 6
      vertex 26 4 6
    endloop
  endfacet
  facet normal -0 0 -1
    outer loop
      vertex 26 24 6
      vertex 4 4 6
      vertex 4 24 6
    endloop
  endfacet
  facet normal -1 0 0
    outer loop
      vertex 26 4 0
      vertex 26 24 6
      vertex 26 24 0
    endloop
  endfacet
  facet normal -1 -0 0
    outer loop
      vertex 26 24 6
      vertex 26 4 0
      vertex 26 4 6
    endloop
  endfacet
  facet normal 0 -1 0
    outer loop
      vertex 4 24 0
      vertex 26 24 6
      vertex 4 24 6
    endloop
  endfacet
  facet normal 0 -1 -0
    outer loop
      vertex 26 24 6
      vertex 4 24 0
      vertex 26 24 0
    endloop
  endfacet
  facet normal 0 1 -0
    outer loop
      vertex 26 4 0
      vertex 4 4 6
      vertex 26 4 6
    endloop
  endfacet
  facet normal 0 1 0
    outer loop
      vertex 4 4 6
      vertex 26 4 0
      vertex 4 4 0
    endloop
  endfacet
  facet normal 1 -0 0
    outer loop
      vertex 4 28 6
      vertex 4 48 0
      vertex 4 48 6
    endloop
  endfacet
  facet normal 1 0 0
    outer loop
      vertex 4 48 0
      vertex 4 28 6
      vertex 4 28 0
    endloop
  endfacet
  facet normal 0 0 -1
    outer loop
      vertex 4 28 6
      vertex 26 48 6
      vertex 26 28 6
    endloop
  endfacet
  facet normal -0 0 -1
    outer loop
      vertex 26 48 6
      vertex 4 28 6
      vertex 4 48 6
    endloop
  endfacet
  facet normal -1 0 0
    outer loop
      vertex 26 28 0
      vertex 26 48 6
      vertex 26 48 0
    endloop
  endfacet
  facet normal -1 -0 0
    outer loop
      vertex 26 48 6
      vertex 26 28 0
      vertex 26 28 6
    endloop
  endfacet
  facet normal 0 1 -0
    outer loop
      vertex 26 28 0
      vertex 4 28 6
      vertex 26 28 6
    endloop
  endfacet
  facet normal 0 1 0
    outer loop
      vertex 4 28 6
      vertex 26 28 0
      vertex 4 28 0
    endloop
  endfacet
  facet normal 0 -1 0
    outer loop
      vertex 4 48 0
      vertex 26 48 6
      vertex 4 48 6
    endloop
  endfacet
  facet normal 0 -1 -0
    outer loop
      vertex 26 48 6
      vertex 4 48 0
      vertex 26 48 0
    endloop
  endfacet
  facet normal 1 -0 0
    outer loop
      vertex 4 52 6
      vertex 4 60 0
      vertex 4 60 6
    endloop
  endfacet
  facet normal 1 0 0
    outer loop
      vertex 4 60 0
      vertex 4 52 6
      vertex 4 52 0
    endloop
  endfacet
  facet normal 0 0 -1
    outer loop
      vertex 4 52 6
      vertex 26 60 6
      vertex 26 52 6
    endloop
  endfacet
  facet normal -0 0 -1
    outer loop
      vertex 26 60 6
      vertex 4 52 6
      vertex 4 60 6
    endloop
  endfacet
  facet normal -1 0 0
    outer loop
      vertex 26 52 0
      vertex 26 60 6
      vertex 26 60 0
    endloop
  endfacet
  facet normal -1 -0 0
    outer loop
      vertex 26 60 6
      vertex 26 52 0
      vertex 26 52 6
    endloop
  endfacet
  facet normal 0 1 -0
    outer loop
      vertex 26 52 0
      vertex 4 52 6
      vertex 26 52 6
    endloop
  endfacet
  facet normal 0 1 0
    outer loop
      vertex 4 52 6
      vertex 26 52 0
      vertex 4 52 0
    endloop
  endfacet
  facet normal 0 -1 0
    outer loop
      vertex 4 60 0
      vertex 26 60 6
      vertex 4 60 6
    endloop
  endfacet
  facet normal 0 -1 -0
    outer loop
      vertex 26 60 6
      vertex 4 60 0
      vertex 26 60 0
    endloop
  endfacet
  facet normal 1 -0 0
    outer loop
      vertex 4 64 6
      vertex 4 68 0
      vertex 4 68 6
    endloop
  endfacet
  facet normal 1 0 0
    outer loop
      vertex 4 68 0
      vertex 4 64 6
      vertex 4 64 0
    endloop
  endfacet
  facet normal 0 0 -1
    outer loop
      vertex 4 64 6
      vertex 26 68 6
      vertex 26 64 6
    endloop
  endfacet
  facet normal -0 0 -1
    outer loop
      vertex 26 68 6
      vertex 4 64 6
      vertex 4 68 6
    endloop
  endfacet
  facet normal -1 0 0
    outer loop
      vertex 26 64 0
      vertex 26 68 6
      vertex 26 68 0
    endloop
  endfacet
  facet normal -1 -0 0
    outer loop
      vertex 26 68 6
      vertex 26 64 0
      vertex 26 64 6
    endloop
  endfacet
  facet normal 0 -1 0
    outer loop
      vertex 4 68 0
      vertex 26 68 6
      vertex 4 68 6
    endloop
  endfacet
  facet normal 0 -1 -0
    outer loop
      vertex 26 68 6
      vertex 4 68 0
      vertex 26 68 0
    endloop
  endfacet
  facet normal 0 1 -0
    outer loop
      vertex 26 64 0
      vertex 4 64 6
      vertex 26 64 6
    endloop
  endfacet
  facet normal 0 1 0
    outer loop
      vertex 4 64 6
      vertex 26 64 0
      vertex 4 64 0
    endloop
  endfacet
  facet normal 1 -0 0
    outer loop
      vertex 4 72 6
      vertex 4 86 0
      vertex 4 86 6
    endloop
  endfacet
  facet normal 1 0 0
    outer loop
      vertex 4 86 0
      vertex 4 72 6
      vertex 4 72 0
    endloop
  endfacet
  facet normal 0 0 -1
    outer loop
      vertex 4 72 6
      vertex 26 86 6
      vertex 26 72 6
    endloop
  endfacet
  facet normal -0 0 -1
    outer loop
      vertex 26 86 6
      vertex 4 72 6
      vertex 4 86 6
    endloop
  endfacet
  facet normal -1 0 0
    outer loop
      vertex 26 72 0
      vertex 26 86 6
      vertex 26 86 0
    endloop
  endfacet
  facet normal -1 -0 0
    outer loop
      vertex 26 86 6
      vertex 26 72 0
      vertex 26 72 6
    endloop
  endfacet
  facet normal 0 1 -0
    outer loop
      vertex 26 72 0
      vertex 4 72 6
      vertex 26 72 6
    endloop
  endfacet
  facet normal 0 1 0
    outer loop
      vertex 4 72 6
      vertex 26 72 0
      vertex 4 72 0
    endloop
  endfacet
  facet normal 0 -1 0
    outer loop
      vertex 4 86 0
      vertex 26 86 6
      vertex 4 86 6
    endloop
  endfacet
  facet normal 0 -1 -0
    outer loop
      vertex 26 86 6
      vertex 4 86 0
      vertex 26 86 0
    endloop
  endfacet
  facet normal -0 0 1
    outer loop
      vertex 0 8 24
      vertex 30 -8 24
      vertex 30 8 24
    endloop
  endfacet
  facet normal 0 0 1
    outer loop
      vertex 30 -8 24
      vertex 0 8 24
      vertex 0 -8 24
    endloop
  endfacet
  facet normal 1 -0 0
    outer loop
      vertex 8 -8 20
      vertex 8 0 8
      vertex 8 0 20
    endloop
  endfacet
  facet normal 1 0 0
    outer loop
      vertex 8 0 8
      vertex 8 -8 20
      vertex 8 -8 8
    endloop
  endfacet
  facet normal 0 -1 0
    outer loop
      vertex 0 -8 24
      vertex 8 -8 20
      vertex 30 -8 24
    endloop
  endfacet
  facet normal 0 -1 0
    outer loop
      vertex 0 -8 24
      vertex 8 -8 8
      vertex 8 -8 20
    endloop
  endfacet
  facet normal 0 -1 -0
    outer loop
      vertex 8 -8 8
      vertex 0 -8 0
      vertex 22 -8 8
    endloop
  endfacet
  facet normal 0 -1 0
    outer loop
      vertex 0 -8 0
      vertex 8 -8 8
      vertex 0 -8 24
    endloop
  endfacet
  facet normal 0 -1 0
    outer loop
      vertex 22 -8 20
      vertex 30 -8 24
      vertex 8 -8 20
    endloop
  endfacet
  facet normal 0 -1 0
    outer loop
      vertex 22 -8 8
      vertex 30 -8 24
      vertex 22 -8 20
    endloop
  endfacet
  facet normal 0 -1 0
    outer loop
      vertex 22 -8 8
      vertex 30 -8 0
      vertex 30 -8 24
    endloop
  endfacet
  facet normal 0 -1 0
    outer loop
      vertex 30 -8 0
      vertex 22 -8 8
      vertex 0 -8 0
    endloop
  endfacet
  facet normal -1 0 0
    outer loop
      vertex 22 -8 8
      vertex 22 0 20
      vertex 22 0 8
    endloop
  endfacet
  facet normal -1 -0 0
    outer loop
      vertex 22 0 20
      vertex 22 -8 8
      vertex 22 -8 20
    endloop
  endfacet
  facet normal 0 0 -1
    outer loop
      vertex 22 -8 20
      vertex 8 -8 20
      vertex 22 0 20
    endloop
  endfacet
  facet normal 0 0 -1
    outer loop
      vertex 22 0 20
      vertex 30 8 20
      vertex 30 0 20
    endloop
  endfacet
  facet normal 0 0 -1
    outer loop
      vertex 8 0 20
      vertex 22 0 20
      vertex 8 -8 20
    endloop
  endfacet
  facet normal 0 0 -1
    outer loop
      vertex 22 0 20
      vertex 8 0 20
      vertex 30 8 20
    endloop
  endfacet
  facet normal 0 0 -1
    outer loop
      vertex 0 8 20
      vertex 8 0 20
      vertex 0 0 20
    endloop
  endfacet
  facet normal 0 0 -1
    outer loop
      vertex 8 0 20
      vertex 0 8 20
      vertex 30 8 20
    endloop
  endfacet
  facet normal 0 1 -0
    outer loop
      vertex 30 8 20
      vertex 0 8 24
      vertex 30 8 24
    endloop
  endfacet
  facet normal 0 1 0
    outer loop
      vertex 0 8 24
      vertex 30 8 20
      vertex 0 8 20
    endloop
  endfacet
endsolid OpenSCAD_Model
